<svg width="20" height="20" viewBox="0 0 20 20" fill="none" xmlns="http://www.w3.org/2000/svg">
<path d="M15.0002 4.97484V3.33317H5.00016V4.97484L10.0002 8.5465L15.0002 4.97567V4.97484ZM10.8335 9.99984V16.6665L9.16683 18.3332V9.99984L4.03183 6.3315C3.81593 6.17739 3.63994 5.97397 3.51848 5.73815C3.39702 5.50233 3.3336 5.24093 3.3335 4.97567V3.33317C3.3335 2.89114 3.50909 2.46722 3.82165 2.15466C4.13421 1.8421 4.55813 1.6665 5.00016 1.6665H15.0002C15.4422 1.6665 15.8661 1.8421 16.1787 2.15466C16.4912 2.46722 16.6668 2.89114 16.6668 3.33317V4.97484C16.6668 5.24024 16.6035 5.50181 16.482 5.73778C16.3606 5.97375 16.1845 6.17731 15.9685 6.3315L10.8335 9.99984Z" fill="#3FA5FF"/>
<path d="M4.5 5.5V3H15.5V5.5L10 9.5L4.5 5.5Z" fill="#3FA5FF" stroke="#3FA5FF"/>
</svg>
