<svg width="21" height="22" viewBox="0 0 21 22" fill="none" xmlns="http://www.w3.org/2000/svg">
<path d="M12.9678 7.20352L13.0842 7.43932L13.3443 7.47713L18.5497 8.23364C18.5499 8.23367 18.5501 8.2337 18.5503 8.23373C18.6405 8.24744 18.6949 8.32836 18.6827 8.40726L18.6827 8.40726L18.6819 8.41279C18.6773 8.4453 18.6619 8.47637 18.6365 8.50136C18.6364 8.50147 18.6363 8.50158 18.6362 8.50169L14.8698 12.1737L14.6816 12.3572L14.7261 12.6163L15.6161 17.8027L15.6162 17.8031C15.6306 17.8866 15.5747 17.9674 15.4887 17.9822L15.488 17.9823C15.4537 17.9883 15.4192 17.9822 15.3923 17.9679L15.39 17.9667L10.7327 15.5181L10.5 15.3958L10.2674 15.5181L5.61004 17.9667L5.60927 17.9671C5.58362 17.9807 5.55468 17.9868 5.52575 17.9847C5.49682 17.9826 5.46904 17.9725 5.44558 17.9555C5.4221 17.9384 5.40388 17.9151 5.39297 17.8883C5.38206 17.8614 5.3789 17.832 5.38384 17.8034L5.38395 17.8027L6.27399 12.6163L6.31845 12.3572L6.13024 12.1737L2.36296 8.50079L2.36292 8.50076C2.33307 8.47166 2.316 8.4319 2.31544 8.39022C2.3149 8.34883 2.33068 8.30891 2.35936 8.2791C2.3843 8.25393 2.41524 8.23867 2.44761 8.23405L2.44881 8.23387L7.65574 7.47713L7.91594 7.43932L8.03225 7.20352L10.3587 2.48709C10.3588 2.48682 10.359 2.48655 10.3591 2.48627C10.3991 2.40744 10.4944 2.37718 10.5699 2.41446L10.5705 2.41475C10.6007 2.4296 10.6251 2.45406 10.64 2.48424L10.6402 2.48467L12.9678 7.20352Z" stroke="#DADADA"/>
</svg>
