<svg width="21" height="21" viewBox="0 0 21 21" fill="none" xmlns="http://www.w3.org/2000/svg">
<path d="M18.6232 7.23907L13.4163 6.48233L11.0886 1.76348C11.025 1.63428 10.9205 1.5297 10.7913 1.46612C10.4672 1.30616 10.0735 1.43946 9.91147 1.76348L7.58383 6.48233L2.3769 7.23907C2.23335 7.25958 2.1021 7.32725 2.00161 7.42979C1.88012 7.55466 1.81318 7.72264 1.81549 7.89684C1.81779 8.07104 1.88916 8.23719 2.01391 8.3588L5.7812 12.0317L4.89116 17.2182C4.87029 17.3388 4.88364 17.4629 4.9297 17.5763C4.97576 17.6898 5.05268 17.7881 5.15175 17.86C5.25082 17.932 5.36806 17.9747 5.49019 17.9834C5.61232 17.9921 5.73445 17.9664 5.84272 17.9093L10.5 15.4606L15.1574 17.9093C15.2845 17.977 15.4322 17.9995 15.5737 17.9749C15.9305 17.9134 16.1705 17.575 16.1089 17.2182L15.2189 12.0317L18.9862 8.3588C19.0887 8.25831 19.1564 8.12706 19.1769 7.9835C19.2323 7.62462 18.9821 7.29239 18.6232 7.23907Z" fill="#FC8004"/>
</svg>
