<svg width="20" height="20" viewBox="0 0 20 20" fill="none" xmlns="http://www.w3.org/2000/svg">
<path d="M14.9997 4.9724V3.33073H4.99967V4.9724L9.99967 8.54406L14.9997 4.97323V4.9724ZM10.833 9.9974V16.6641L9.16634 18.3307V9.9974L4.03134 6.32906C3.81545 6.17495 3.63945 5.97153 3.51799 5.73571C3.39653 5.49989 3.33311 5.23849 3.33301 4.97323V3.33073C3.33301 2.8887 3.5086 2.46478 3.82116 2.15222C4.13372 1.83966 4.55765 1.66406 4.99967 1.66406H14.9997C15.4417 1.66406 15.8656 1.83966 16.1782 2.15222C16.4907 2.46478 16.6663 2.8887 16.6663 3.33073V4.9724C16.6664 5.2378 16.603 5.49936 16.4815 5.73534C16.3601 5.97131 16.184 6.17486 15.968 6.32906L10.833 9.9974Z" fill="#FC8004"/>
</svg>
