<svg width="20" height="20" viewBox="0 0 20 20" fill="none" xmlns="http://www.w3.org/2000/svg">
<path d="M15.0002 4.97508V3.33341H5.00016V4.97508L10.0002 8.54675L15.0002 4.97591V4.97508ZM10.8335 10.0001V16.6667L9.16683 18.3334V10.0001L4.03183 6.33175C3.81593 6.17763 3.63994 5.97421 3.51848 5.73839C3.39702 5.50258 3.3336 5.24117 3.3335 4.97591V3.33341C3.3335 2.89139 3.50909 2.46746 3.82165 2.1549C4.13421 1.84234 4.55813 1.66675 5.00016 1.66675H15.0002C15.4422 1.66675 15.8661 1.84234 16.1787 2.1549C16.4912 2.46746 16.6668 2.89139 16.6668 3.33341V4.97508C16.6668 5.24048 16.6035 5.50205 16.482 5.73802C16.3606 5.974 16.1845 6.17755 15.9685 6.33175L10.8335 10.0001Z" fill="#242F48"/>
</svg>
