<svg width="14" height="18" viewBox="0 0 14 18" fill="none" xmlns="http://www.w3.org/2000/svg">
<path d="M11.9997 3.97435V2.33268H1.99967V3.97435L6.99967 7.54602L11.9997 3.97518V3.97435ZM7.833 8.99935V15.666L6.16634 17.3327V8.99935L1.03134 5.33102C0.815445 5.1769 0.639454 4.97348 0.517994 4.73766C0.396534 4.50184 0.333115 4.24044 0.333008 3.97518V2.33268C0.333008 1.89065 0.508602 1.46673 0.821163 1.15417C1.13372 0.84161 1.55765 0.666016 1.99967 0.666016H11.9997C12.4417 0.666016 12.8656 0.84161 13.1782 1.15417C13.4907 1.46673 13.6663 1.89065 13.6663 2.33268V3.97435C13.6664 4.23975 13.603 4.50132 13.4815 4.73729C13.3601 4.97326 13.184 5.17682 12.968 5.33102L7.833 8.99935Z" fill="#3FA5FF"/>
</svg>
